<svg width="16" height="16" viewBox="0 0 16 16" fill="none" xmlns="http://www.w3.org/2000/svg">
<path fill-rule="evenodd" clip-rule="evenodd" d="M8.00067 0C5.828 0 5.55533 0.0095 4.702 0.0483333C3.85033 0.0873333 3.269 0.222167 2.76033 0.42C2.23417 0.624333 1.78783 0.897667 1.34317 1.3425C0.898167 1.78717 0.624833 2.2335 0.419833 2.7595C0.2215 3.26833 0.0865 3.84983 0.0481667 4.70117C0.01 5.5545 0 5.82733 0 8C0 10.1727 0.00966667 10.4445 0.0483333 11.2978C0.0875 12.1495 0.222333 12.7308 0.42 13.2395C0.6245 13.7657 0.897834 14.212 1.34267 14.6567C1.78717 15.1017 2.2335 15.3757 2.75933 15.58C3.26833 15.7778 3.84983 15.9127 4.70133 15.9517C5.55467 15.9905 5.82717 16 7.99967 16C10.1725 16 10.4443 15.9905 11.2977 15.9517C12.1493 15.9127 12.7313 15.7778 13.2403 15.58C13.7663 15.3757 14.212 15.1017 14.6565 14.6567C15.1015 14.212 15.3748 13.7657 15.5798 13.2397C15.7765 12.7308 15.9115 12.1493 15.9515 11.298C15.9898 10.4447 15.9998 10.1727 15.9998 8C15.9998 5.82733 15.9898 5.55467 15.9515 4.70133C15.9115 3.84967 15.7765 3.26833 15.5798 2.75967C15.3748 2.2335 15.1015 1.78717 14.6565 1.3425C14.2115 0.8975 13.7665 0.624167 13.2398 0.42C12.7298 0.222167 12.1482 0.0873333 11.2965 0.0483333C10.4432 0.0095 10.1715 0 7.99817 0H8.00067ZM7.28297 1.44164C7.49597 1.44131 7.73363 1.44164 8.00063 1.44164C10.1366 1.44164 10.3898 1.44931 11.2333 1.48764C12.0133 1.52331 12.4366 1.65364 12.7186 1.76314C13.092 1.90814 13.3581 2.08148 13.638 2.36148C13.918 2.64148 14.0913 2.90814 14.2366 3.28148C14.3461 3.56314 14.4766 3.98648 14.5121 4.76648C14.5505 5.60981 14.5588 5.86315 14.5588 7.99815C14.5588 10.1331 14.5505 10.3865 14.5121 11.2298C14.4765 12.0098 14.3461 12.4331 14.2366 12.7148C14.0916 13.0881 13.918 13.354 13.638 13.6338C13.358 13.9138 13.0921 14.0871 12.7186 14.2321C12.437 14.3421 12.0133 14.4721 11.2333 14.5078C10.39 14.5461 10.1366 14.5545 8.00063 14.5545C5.86447 14.5545 5.6113 14.5461 4.76797 14.5078C3.98797 14.4718 3.56463 14.3415 3.28247 14.232C2.90913 14.087 2.64247 13.9136 2.36247 13.6336C2.08247 13.3536 1.90913 13.0876 1.7638 12.7141C1.6543 12.4325 1.5238 12.0091 1.4883 11.2291C1.44997 10.3858 1.4423 10.1325 1.4423 7.99614C1.4423 5.85981 1.44997 5.60781 1.4883 4.76448C1.52397 3.98448 1.6543 3.56114 1.7638 3.27914C1.9088 2.90581 2.08247 2.63914 2.36247 2.35914C2.64247 2.07914 2.90913 1.90581 3.28247 1.76048C3.56447 1.65048 3.98797 1.52048 4.76797 1.48464C5.50597 1.45131 5.79197 1.44131 7.28297 1.43964V1.44164ZM12.271 2.76998C11.741 2.76998 11.311 3.19948 11.311 3.72965C11.311 4.25965 11.741 4.68965 12.271 4.68965C12.801 4.68965 13.231 4.25965 13.231 3.72965C13.231 3.19965 12.801 2.76998 12.271 2.76998ZM8.00068 3.89165C5.73185 3.89165 3.89235 5.73114 3.89235 7.99998C3.89235 10.2688 5.73185 12.1075 8.00068 12.1075C10.2695 12.1075 12.1083 10.2688 12.1083 7.99998C12.1083 5.73114 10.2695 3.89165 8.00068 3.89165ZM8.00065 5.33331C9.47332 5.33331 10.6673 6.52714 10.6673 7.99998C10.6673 9.47264 9.47332 10.6666 8.00065 10.6666C6.52782 10.6666 5.33398 9.47264 5.33398 7.99998C5.33398 6.52714 6.52782 5.33331 8.00065 5.33331Z" fill="#647B64"/>
</svg>
