<svg width="16" height="16" viewBox="0 0 16 16" fill="none" xmlns="http://www.w3.org/2000/svg">
<path fill-rule="evenodd" clip-rule="evenodd" d="M16 8.00002C16 8.54179 15.9449 9.08282 15.8367 9.61019C15.7312 10.125 15.575 10.6305 15.3703 11.1137C15.1703 11.5883 14.9222 12.0457 14.6324 12.4723C14.3468 12.8961 14.0179 13.2938 13.6565 13.6563C13.2944 14.0172 12.896 14.3457 12.4729 14.6328C12.0455 14.9211 11.5881 15.1691 11.1139 15.3703C10.6306 15.5742 10.1247 15.7305 9.61103 15.8359C9.08369 15.9445 8.54145 16 7.99964 16C7.45743 16 6.91521 15.9445 6.38863 15.8359C5.87416 15.7305 5.36827 15.5742 4.88542 15.3703C4.41119 15.1691 3.95334 14.9211 3.52598 14.6328C3.10291 14.3457 2.70446 14.0172 2.34311 13.6563C1.98138 13.2938 1.65244 12.8961 1.36649 12.4723C1.07819 12.0457 0.829727 11.5883 0.628949 11.1137C0.424226 10.6305 0.267599 10.125 0.161731 9.61019C0.0547035 9.08282 0 8.54179 0 8.00002C0 7.45783 0.0546722 6.91565 0.161762 6.38944C0.267631 5.87459 0.424257 5.36835 0.62898 4.88594C0.829758 4.41095 1.07823 3.95315 1.36652 3.52657C1.65247 3.10237 1.98141 2.70547 2.34314 2.34257C2.70449 1.98162 3.10294 1.65391 3.52601 1.3672C3.95337 1.07773 4.41122 0.829713 4.88546 0.628132C5.3683 0.423796 5.87416 0.267178 6.38866 0.162505C6.91525 0.0547005 7.45746 0 7.99967 0C8.54148 0 9.08369 0.0547005 9.61106 0.162505C10.1247 0.267209 10.6306 0.423827 11.1139 0.628132C11.5881 0.829681 12.0456 1.07773 12.4729 1.3672C12.896 1.65391 13.2945 1.98162 13.6566 2.34257C14.0179 2.70547 14.3469 3.10237 14.6324 3.52657C14.9222 3.95315 15.1703 4.41098 15.3703 4.88594C15.575 5.36835 15.7312 5.87459 15.8367 6.38944C15.9449 6.91565 16 7.45783 16 8.00002ZM5.08461 1.8207C3.17941 2.72033 1.75747 4.47578 1.31408 6.59141C1.49419 6.59298 4.34121 6.62892 7.62145 5.75741C6.43898 3.65662 5.17564 1.94221 5.08461 1.8207ZM8.18749 6.8094C4.66974 7.86249 1.29416 7.78672 1.17307 7.78205C1.1711 7.85548 1.16759 7.92655 1.16759 8.00001C1.16759 9.75506 1.82974 11.3551 2.91807 12.5649C2.91573 12.5613 4.78538 9.24453 8.47228 8.05236C8.56133 8.02268 8.65198 7.99609 8.74182 7.97032C8.57035 7.58207 8.38319 7.193 8.18749 6.8094ZM12.5116 2.87266C11.3088 1.81209 9.7294 1.16878 7.99962 1.16878C7.4445 1.16878 6.9058 1.23597 6.38976 1.36018C6.49209 1.4977 7.77539 3.20002 8.94379 5.3453C11.5217 4.37891 12.4948 2.89765 12.5116 2.87266ZM9.20752 9.10235C9.1923 9.10739 9.17709 9.11174 9.16221 9.11719C5.13121 10.5224 3.81483 13.3542 3.80059 13.3852C4.96044 14.2871 6.4152 14.8312 7.99966 14.8312C8.94578 14.8312 9.84699 14.6386 10.6669 14.2898C10.5658 13.693 10.1689 11.6008 9.20752 9.10235ZM11.8174 13.6656C13.3514 12.6305 14.4409 10.9867 14.7449 9.08278C14.6042 9.03747 12.6928 8.43239 10.4876 8.78592C11.3837 11.2484 11.7478 13.2539 11.8174 13.6656ZM9.46966 6.36328C9.62823 6.68907 9.78178 7.02066 9.92357 7.3539C9.97398 7.47345 10.0232 7.59065 10.0712 7.70781C12.4182 7.41249 14.7305 7.90936 14.8293 7.92965C14.8137 6.31015 14.2343 4.82381 13.2757 3.66016C13.2628 3.67848 12.1671 5.2617 9.46966 6.36328Z" fill="#647B64"/>
</svg>
