<svg width="16" height="16" viewBox="0 0 16 16" fill="none" xmlns="http://www.w3.org/2000/svg">
<path fill-rule="evenodd" clip-rule="evenodd" d="M7.76891 4.72422L7.8036 5.32976L7.22555 5.25561C5.12147 4.97138 3.28329 4.00746 1.72257 2.38857L0.959553 1.5853L0.763018 2.17848C0.346826 3.50078 0.612727 4.89723 1.47979 5.83643C1.94223 6.35547 1.83818 6.42962 1.04048 6.12067C0.763018 6.0218 0.52024 5.94766 0.497118 5.98473C0.416192 6.07124 0.693653 7.19581 0.91331 7.64069C1.21389 8.25859 1.82662 8.86413 2.49715 9.22251L3.06363 9.50674L2.3931 9.5191C1.74569 9.5191 1.72257 9.53146 1.79194 9.79098C2.02315 10.5942 2.93646 11.4469 3.95382 11.8177L4.6706 12.0772L4.04631 12.4727C3.12144 13.0411 2.03472 13.3624 0.947992 13.3871C0.427753 13.3995 0 13.4489 0 13.486C0 13.6096 1.41043 14.3016 2.23125 14.5735C4.69372 15.3768 7.61862 15.0307 9.81519 13.659C11.3759 12.6827 12.9366 10.7425 13.665 8.86413C14.058 7.86314 14.4511 6.03416 14.4511 5.15675C14.4511 4.58828 14.4858 4.51413 15.1332 3.83445C15.5147 3.43899 15.8731 3.00646 15.9425 2.88288C16.0581 2.64808 16.0465 2.64808 15.4569 2.85817C14.4742 3.22891 14.3355 3.17948 14.8211 2.62337C15.1794 2.22791 15.6072 1.51115 15.6072 1.30107C15.6072 1.26399 15.4338 1.32578 15.2372 1.437C15.0291 1.56058 14.5667 1.74595 14.2199 1.85718L13.5956 2.06726L13.0291 1.65945C12.717 1.437 12.2777 1.18985 12.0464 1.1157C11.4568 0.942687 10.5551 0.967403 10.0233 1.16513C8.57817 1.72124 7.66487 3.15476 7.76891 4.72422Z" fill="#647B64"/>
</svg>
