<svg width="16" height="16" viewBox="0 0 16 16" fill="none" xmlns="http://www.w3.org/2000/svg">
<path fill-rule="evenodd" clip-rule="evenodd" d="M14.251 1.41797C14.9395 1.64795 15.4816 2.3256 15.6656 3.18615C16 4.74579 16 8 16 8C16 8 16 11.2541 15.6656 12.8139C15.4816 13.6744 14.9395 14.352 14.251 14.5821C13.0034 15 8 15 8 15C8 15 2.99664 15 1.74891 14.5821C1.06045 14.352 0.518273 13.6744 0.334273 12.8139C0 11.2541 0 8 0 8C0 8 0 4.74579 0.334273 3.18615C0.518273 2.3256 1.06045 1.64795 1.74891 1.41797C2.99664 1 8 1 8 1C8 1 13.0034 1 14.251 1.41797ZM6.50001 5.2608V11.3478L10.5 8.3044L6.50001 5.2608Z" fill="#647B64"/>
</svg>
